<mxfile host="app.diagrams.net" modified="2024-03-27T12:21:58.784Z" agent="Mozilla/5.0 (Windows NT 10.0; Win64; x64) AppleWebKit/537.36 (KHTML, like Gecko) Chrome/123.0.0.0 Safari/537.36" etag="Ft5QONHbjOHvQUDb5an6" version="24.2.0" type="device">
  <diagram name="Page-1" id="Uy7xt3D8gQP0JmskJrjW">
    <mxGraphModel dx="1313" dy="713" grid="1" gridSize="10" guides="1" tooltips="1" connect="1" arrows="1" fold="1" page="1" pageScale="1" pageWidth="850" pageHeight="1100" math="0" shadow="0">
      <root>
        <mxCell id="0" />
        <mxCell id="1" parent="0" />
        <mxCell id="vcACFNlujw8Ewn0Qlh5Q-1" value="" style="rounded=0;whiteSpace=wrap;html=1;" parent="1" vertex="1">
          <mxGeometry x="230" y="15" width="410" height="665" as="geometry" />
        </mxCell>
        <mxCell id="vcACFNlujw8Ewn0Qlh5Q-27" style="edgeStyle=orthogonalEdgeStyle;rounded=0;orthogonalLoop=1;jettySize=auto;html=1;exitX=1;exitY=0.3333333333333333;exitDx=0;exitDy=0;exitPerimeter=0;entryX=0;entryY=0.25;entryDx=0;entryDy=0;" parent="1" source="vcACFNlujw8Ewn0Qlh5Q-2" target="vcACFNlujw8Ewn0Qlh5Q-23" edge="1">
          <mxGeometry relative="1" as="geometry">
            <mxPoint x="360" y="267" as="targetPoint" />
            <Array as="points">
              <mxPoint x="190" y="180" />
              <mxPoint x="245" y="180" />
              <mxPoint x="245" y="116" />
            </Array>
          </mxGeometry>
        </mxCell>
        <mxCell id="vcACFNlujw8Ewn0Qlh5Q-42" style="edgeStyle=orthogonalEdgeStyle;rounded=0;orthogonalLoop=1;jettySize=auto;html=1;exitX=0.5;exitY=0.5;exitDx=0;exitDy=0;exitPerimeter=0;entryX=0;entryY=0.75;entryDx=0;entryDy=0;" parent="1" source="vcACFNlujw8Ewn0Qlh5Q-2" target="vcACFNlujw8Ewn0Qlh5Q-38" edge="1">
          <mxGeometry relative="1" as="geometry" />
        </mxCell>
        <mxCell id="vcACFNlujw8Ewn0Qlh5Q-49" style="edgeStyle=orthogonalEdgeStyle;rounded=0;orthogonalLoop=1;jettySize=auto;html=1;exitX=1;exitY=1;exitDx=0;exitDy=0;exitPerimeter=0;entryX=0;entryY=0.5;entryDx=0;entryDy=0;" parent="1" source="vcACFNlujw8Ewn0Qlh5Q-2" target="vcACFNlujw8Ewn0Qlh5Q-46" edge="1">
          <mxGeometry relative="1" as="geometry">
            <Array as="points">
              <mxPoint x="190" y="250" />
              <mxPoint x="313" y="250" />
              <mxPoint x="313" y="220" />
            </Array>
          </mxGeometry>
        </mxCell>
        <mxCell id="vcACFNlujw8Ewn0Qlh5Q-50" style="edgeStyle=orthogonalEdgeStyle;rounded=0;orthogonalLoop=1;jettySize=auto;html=1;exitX=0;exitY=0.5;exitDx=0;exitDy=0;entryX=0;entryY=0.3333333333333333;entryDx=0;entryDy=0;entryPerimeter=0;" parent="1" source="vcACFNlujw8Ewn0Qlh5Q-43" target="vcACFNlujw8Ewn0Qlh5Q-2" edge="1">
          <mxGeometry relative="1" as="geometry">
            <mxPoint x="200" y="480" as="targetPoint" />
            <Array as="points">
              <mxPoint x="455" y="460" />
              <mxPoint x="40" y="460" />
              <mxPoint x="40" y="207" />
            </Array>
          </mxGeometry>
        </mxCell>
        <mxCell id="PtcjipvapH0LygTKRYyR-4" style="edgeStyle=orthogonalEdgeStyle;rounded=0;orthogonalLoop=1;jettySize=auto;html=1;exitX=0;exitY=1;exitDx=0;exitDy=0;exitPerimeter=0;entryX=0;entryY=0.25;entryDx=0;entryDy=0;" parent="1" source="vcACFNlujw8Ewn0Qlh5Q-2" target="vcACFNlujw8Ewn0Qlh5Q-55" edge="1">
          <mxGeometry relative="1" as="geometry" />
        </mxCell>
        <mxCell id="PtcjipvapH0LygTKRYyR-14" style="edgeStyle=orthogonalEdgeStyle;rounded=0;orthogonalLoop=1;jettySize=auto;html=1;exitX=1;exitY=1;exitDx=0;exitDy=0;exitPerimeter=0;entryX=0;entryY=0.5;entryDx=0;entryDy=0;" parent="1" source="vcACFNlujw8Ewn0Qlh5Q-2" target="PtcjipvapH0LygTKRYyR-11" edge="1">
          <mxGeometry relative="1" as="geometry" />
        </mxCell>
        <mxCell id="lFamUnm0mIOlGsOaa_iN-7" style="edgeStyle=orthogonalEdgeStyle;rounded=0;orthogonalLoop=1;jettySize=auto;html=1;exitX=0;exitY=1;exitDx=0;exitDy=0;exitPerimeter=0;entryX=0;entryY=1;entryDx=0;entryDy=0;" edge="1" parent="1" source="vcACFNlujw8Ewn0Qlh5Q-2" target="lFamUnm0mIOlGsOaa_iN-5">
          <mxGeometry relative="1" as="geometry">
            <Array as="points">
              <mxPoint x="130" y="590" />
              <mxPoint x="250" y="590" />
            </Array>
          </mxGeometry>
        </mxCell>
        <mxCell id="lFamUnm0mIOlGsOaa_iN-10" style="edgeStyle=orthogonalEdgeStyle;rounded=0;orthogonalLoop=1;jettySize=auto;html=1;exitX=0.5;exitY=0.5;exitDx=0;exitDy=0;exitPerimeter=0;entryX=0;entryY=0.5;entryDx=0;entryDy=0;" edge="1" parent="1" source="vcACFNlujw8Ewn0Qlh5Q-2" target="lFamUnm0mIOlGsOaa_iN-6">
          <mxGeometry relative="1" as="geometry">
            <Array as="points">
              <mxPoint x="90" y="225" />
              <mxPoint x="90" y="640" />
            </Array>
          </mxGeometry>
        </mxCell>
        <mxCell id="lFamUnm0mIOlGsOaa_iN-14" style="edgeStyle=orthogonalEdgeStyle;rounded=0;orthogonalLoop=1;jettySize=auto;html=1;exitX=0.5;exitY=0.5;exitDx=0;exitDy=0;exitPerimeter=0;" edge="1" parent="1" source="vcACFNlujw8Ewn0Qlh5Q-2" target="lFamUnm0mIOlGsOaa_iN-3">
          <mxGeometry relative="1" as="geometry">
            <Array as="points">
              <mxPoint x="110" y="730" />
              <mxPoint x="570" y="730" />
            </Array>
          </mxGeometry>
        </mxCell>
        <mxCell id="lFamUnm0mIOlGsOaa_iN-15" style="edgeStyle=orthogonalEdgeStyle;rounded=0;orthogonalLoop=1;jettySize=auto;html=1;exitX=1;exitY=0.3333333333333333;exitDx=0;exitDy=0;exitPerimeter=0;" edge="1" parent="1" source="vcACFNlujw8Ewn0Qlh5Q-2" target="lFamUnm0mIOlGsOaa_iN-4">
          <mxGeometry relative="1" as="geometry">
            <Array as="points">
              <mxPoint x="140" y="710" />
              <mxPoint x="468" y="710" />
            </Array>
          </mxGeometry>
        </mxCell>
        <mxCell id="vcACFNlujw8Ewn0Qlh5Q-2" value="User" style="shape=umlActor;verticalLabelPosition=bottom;verticalAlign=top;html=1;outlineConnect=0;" parent="1" vertex="1">
          <mxGeometry x="80" y="190" width="60" height="110" as="geometry" />
        </mxCell>
        <mxCell id="vcACFNlujw8Ewn0Qlh5Q-6" value="Admin" style="shape=umlActor;verticalLabelPosition=bottom;verticalAlign=top;html=1;outlineConnect=0;" parent="1" vertex="1">
          <mxGeometry x="680" y="70" width="40" height="90" as="geometry" />
        </mxCell>
        <mxCell id="vcACFNlujw8Ewn0Qlh5Q-13" value="" style="endArrow=classic;html=1;rounded=0;exitX=0.5;exitY=0.5;exitDx=0;exitDy=0;exitPerimeter=0;entryX=1;entryY=0.5;entryDx=0;entryDy=0;" parent="1" source="vcACFNlujw8Ewn0Qlh5Q-6" target="vcACFNlujw8Ewn0Qlh5Q-7" edge="1">
          <mxGeometry width="50" height="50" relative="1" as="geometry">
            <mxPoint x="400" y="320" as="sourcePoint" />
            <mxPoint x="500" y="140" as="targetPoint" />
          </mxGeometry>
        </mxCell>
        <mxCell id="vcACFNlujw8Ewn0Qlh5Q-21" value="" style="endArrow=classic;html=1;rounded=0;entryX=0;entryY=0.25;entryDx=0;entryDy=0;exitX=0.75;exitY=0.1;exitDx=0;exitDy=0;exitPerimeter=0;" parent="1" source="vcACFNlujw8Ewn0Qlh5Q-2" target="vcACFNlujw8Ewn0Qlh5Q-16" edge="1">
          <mxGeometry width="50" height="50" relative="1" as="geometry">
            <mxPoint x="380" y="310" as="sourcePoint" />
            <mxPoint x="180" y="335" as="targetPoint" />
          </mxGeometry>
        </mxCell>
        <mxCell id="vcACFNlujw8Ewn0Qlh5Q-24" value="" style="group" parent="1" vertex="1" connectable="0">
          <mxGeometry x="295" y="100" width="140" height="50" as="geometry" />
        </mxCell>
        <mxCell id="vcACFNlujw8Ewn0Qlh5Q-22" value="" style="rounded=1;whiteSpace=wrap;html=1;" parent="vcACFNlujw8Ewn0Qlh5Q-24" vertex="1">
          <mxGeometry width="140" height="50" as="geometry" />
        </mxCell>
        <mxCell id="vcACFNlujw8Ewn0Qlh5Q-23" value="View charts/graphs regarding products statistics" style="text;html=1;align=center;verticalAlign=middle;whiteSpace=wrap;rounded=0;" parent="vcACFNlujw8Ewn0Qlh5Q-24" vertex="1">
          <mxGeometry x="4.666666666666667" y="13.129999999999999" width="130.66666666666666" height="23.75" as="geometry" />
        </mxCell>
        <mxCell id="vcACFNlujw8Ewn0Qlh5Q-9" value="" style="group" parent="1" vertex="1" connectable="0">
          <mxGeometry x="470" y="25" width="120" height="60" as="geometry" />
        </mxCell>
        <object label="" exemplu="asdasdsad" id="vcACFNlujw8Ewn0Qlh5Q-7">
          <mxCell style="rounded=1;whiteSpace=wrap;html=1;" parent="vcACFNlujw8Ewn0Qlh5Q-9" vertex="1">
            <mxGeometry width="120" height="60" as="geometry" />
          </mxCell>
        </object>
        <mxCell id="vcACFNlujw8Ewn0Qlh5Q-8" value="Add/Delete/Modify products" style="text;html=1;align=center;verticalAlign=middle;whiteSpace=wrap;rounded=0;" parent="vcACFNlujw8Ewn0Qlh5Q-9" vertex="1">
          <mxGeometry x="30" y="15" width="60" height="30" as="geometry" />
        </mxCell>
        <mxCell id="vcACFNlujw8Ewn0Qlh5Q-30" value="" style="group" parent="1" vertex="1" connectable="0">
          <mxGeometry x="295" y="30" width="90" height="50" as="geometry" />
        </mxCell>
        <mxCell id="vcACFNlujw8Ewn0Qlh5Q-16" value="" style="rounded=1;whiteSpace=wrap;html=1;" parent="vcACFNlujw8Ewn0Qlh5Q-30" vertex="1">
          <mxGeometry width="90" height="50" as="geometry" />
        </mxCell>
        <mxCell id="vcACFNlujw8Ewn0Qlh5Q-17" value="View products" style="text;html=1;align=center;verticalAlign=middle;whiteSpace=wrap;rounded=0;" parent="vcACFNlujw8Ewn0Qlh5Q-30" vertex="1">
          <mxGeometry x="22.5" y="12.5" width="45" height="25" as="geometry" />
        </mxCell>
        <mxCell id="vcACFNlujw8Ewn0Qlh5Q-31" value="Marketplaces" style="shape=umlActor;verticalLabelPosition=bottom;verticalAlign=top;html=1;outlineConnect=0;" parent="1" vertex="1">
          <mxGeometry x="720" y="380" width="30" height="60" as="geometry" />
        </mxCell>
        <mxCell id="vcACFNlujw8Ewn0Qlh5Q-34" value="" style="group" parent="1" vertex="1" connectable="0">
          <mxGeometry x="510" y="460" width="90" height="50" as="geometry" />
        </mxCell>
        <mxCell id="vcACFNlujw8Ewn0Qlh5Q-32" value="" style="rounded=1;whiteSpace=wrap;html=1;" parent="vcACFNlujw8Ewn0Qlh5Q-34" vertex="1">
          <mxGeometry width="90" height="50" as="geometry" />
        </mxCell>
        <mxCell id="vcACFNlujw8Ewn0Qlh5Q-33" value="Collect data about products" style="text;html=1;align=center;verticalAlign=middle;whiteSpace=wrap;rounded=0;" parent="vcACFNlujw8Ewn0Qlh5Q-34" vertex="1">
          <mxGeometry x="14" y="12.5" width="62" height="25" as="geometry" />
        </mxCell>
        <mxCell id="vcACFNlujw8Ewn0Qlh5Q-35" style="edgeStyle=orthogonalEdgeStyle;rounded=0;orthogonalLoop=1;jettySize=auto;html=1;exitX=1;exitY=0.25;exitDx=0;exitDy=0;entryX=0;entryY=0.3333333333333333;entryDx=0;entryDy=0;entryPerimeter=0;" parent="1" source="vcACFNlujw8Ewn0Qlh5Q-32" target="vcACFNlujw8Ewn0Qlh5Q-31" edge="1">
          <mxGeometry relative="1" as="geometry" />
        </mxCell>
        <mxCell id="vcACFNlujw8Ewn0Qlh5Q-41" value="" style="group" parent="1" vertex="1" connectable="0">
          <mxGeometry x="305" y="160" width="70" height="50" as="geometry" />
        </mxCell>
        <mxCell id="vcACFNlujw8Ewn0Qlh5Q-38" value="" style="rounded=1;whiteSpace=wrap;html=1;" parent="vcACFNlujw8Ewn0Qlh5Q-41" vertex="1">
          <mxGeometry width="70" height="50" as="geometry" />
        </mxCell>
        <mxCell id="vcACFNlujw8Ewn0Qlh5Q-39" value="Compare products" style="text;html=1;align=center;verticalAlign=middle;whiteSpace=wrap;rounded=0;" parent="vcACFNlujw8Ewn0Qlh5Q-41" vertex="1">
          <mxGeometry x="11.666666666666666" y="12.5" width="46.666666666666664" height="25" as="geometry" />
        </mxCell>
        <mxCell id="vcACFNlujw8Ewn0Qlh5Q-45" value="" style="group" parent="1" vertex="1" connectable="0">
          <mxGeometry x="470" y="380" width="120" height="60" as="geometry" />
        </mxCell>
        <mxCell id="vcACFNlujw8Ewn0Qlh5Q-43" value="" style="rounded=1;whiteSpace=wrap;html=1;" parent="vcACFNlujw8Ewn0Qlh5Q-45" vertex="1">
          <mxGeometry width="120" height="60" as="geometry" />
        </mxCell>
        <mxCell id="vcACFNlujw8Ewn0Qlh5Q-44" value="Notify user about changes in prices of followed products,&amp;nbsp;" style="text;html=1;align=center;verticalAlign=middle;whiteSpace=wrap;rounded=0;" parent="vcACFNlujw8Ewn0Qlh5Q-45" vertex="1">
          <mxGeometry x="10" y="15" width="100" height="30" as="geometry" />
        </mxCell>
        <mxCell id="vcACFNlujw8Ewn0Qlh5Q-48" value="" style="group" parent="1" vertex="1" connectable="0">
          <mxGeometry x="425" y="190" width="120" height="60" as="geometry" />
        </mxCell>
        <mxCell id="vcACFNlujw8Ewn0Qlh5Q-46" value="" style="rounded=1;whiteSpace=wrap;html=1;" parent="vcACFNlujw8Ewn0Qlh5Q-48" vertex="1">
          <mxGeometry width="120" height="60" as="geometry" />
        </mxCell>
        <mxCell id="vcACFNlujw8Ewn0Qlh5Q-47" value="Mark as favourite/Follow product" style="text;html=1;align=center;verticalAlign=middle;whiteSpace=wrap;rounded=0;" parent="vcACFNlujw8Ewn0Qlh5Q-48" vertex="1">
          <mxGeometry x="30" y="15" width="60" height="30" as="geometry" />
        </mxCell>
        <mxCell id="vcACFNlujw8Ewn0Qlh5Q-57" value="" style="group" parent="1" vertex="1" connectable="0">
          <mxGeometry x="495" y="290" width="105" height="90" as="geometry" />
        </mxCell>
        <mxCell id="vcACFNlujw8Ewn0Qlh5Q-55" value="" style="rounded=1;whiteSpace=wrap;html=1;" parent="vcACFNlujw8Ewn0Qlh5Q-57" vertex="1">
          <mxGeometry width="90" height="50" as="geometry" />
        </mxCell>
        <mxCell id="vcACFNlujw8Ewn0Qlh5Q-56" value="Login/Register" style="text;html=1;align=center;verticalAlign=middle;whiteSpace=wrap;rounded=0;" parent="vcACFNlujw8Ewn0Qlh5Q-57" vertex="1">
          <mxGeometry x="25" y="10" width="40" height="30" as="geometry" />
        </mxCell>
        <mxCell id="vcACFNlujw8Ewn0Qlh5Q-62" style="edgeStyle=orthogonalEdgeStyle;rounded=0;orthogonalLoop=1;jettySize=auto;html=1;exitX=0.75;exitY=0;exitDx=0;exitDy=0;" parent="1" source="vcACFNlujw8Ewn0Qlh5Q-43" target="vcACFNlujw8Ewn0Qlh5Q-55" edge="1">
          <mxGeometry relative="1" as="geometry">
            <Array as="points">
              <mxPoint x="540" y="380" />
            </Array>
          </mxGeometry>
        </mxCell>
        <mxCell id="vcACFNlujw8Ewn0Qlh5Q-74" value="" style="group" parent="1" vertex="1" connectable="0">
          <mxGeometry x="320" y="300" width="60" height="30" as="geometry" />
        </mxCell>
        <mxCell id="vcACFNlujw8Ewn0Qlh5Q-68" style="edgeStyle=orthogonalEdgeStyle;rounded=0;orthogonalLoop=1;jettySize=auto;html=1;exitX=0;exitY=0.75;exitDx=0;exitDy=0;" parent="vcACFNlujw8Ewn0Qlh5Q-74" source="vcACFNlujw8Ewn0Qlh5Q-46" target="vcACFNlujw8Ewn0Qlh5Q-55" edge="1">
          <mxGeometry relative="1" as="geometry" />
        </mxCell>
        <mxCell id="vcACFNlujw8Ewn0Qlh5Q-79" value="" style="group" parent="1" vertex="1" connectable="0">
          <mxGeometry x="305" y="360" width="135" height="80" as="geometry" />
        </mxCell>
        <mxCell id="vcACFNlujw8Ewn0Qlh5Q-77" value="" style="rounded=1;whiteSpace=wrap;html=1;" parent="vcACFNlujw8Ewn0Qlh5Q-79" vertex="1">
          <mxGeometry width="135" height="80" as="geometry" />
        </mxCell>
        <mxCell id="vcACFNlujw8Ewn0Qlh5Q-78" value="Recommend products to user based on demographics and actions" style="text;html=1;align=center;verticalAlign=middle;whiteSpace=wrap;rounded=0;" parent="vcACFNlujw8Ewn0Qlh5Q-79" vertex="1">
          <mxGeometry x="19" y="23.33" width="101.25" height="33.33333333333333" as="geometry" />
        </mxCell>
        <mxCell id="vcACFNlujw8Ewn0Qlh5Q-80" style="edgeStyle=orthogonalEdgeStyle;rounded=0;orthogonalLoop=1;jettySize=auto;html=1;exitX=0;exitY=0.5;exitDx=0;exitDy=0;entryX=0.25;entryY=0.1;entryDx=0;entryDy=0;entryPerimeter=0;" parent="1" source="vcACFNlujw8Ewn0Qlh5Q-77" target="vcACFNlujw8Ewn0Qlh5Q-2" edge="1">
          <mxGeometry relative="1" as="geometry">
            <Array as="points">
              <mxPoint x="70" y="335" />
              <mxPoint x="70" y="181" />
            </Array>
          </mxGeometry>
        </mxCell>
        <mxCell id="vcACFNlujw8Ewn0Qlh5Q-81" style="edgeStyle=orthogonalEdgeStyle;rounded=0;orthogonalLoop=1;jettySize=auto;html=1;exitX=1;exitY=0.25;exitDx=0;exitDy=0;entryX=0;entryY=0.25;entryDx=0;entryDy=0;" parent="1" source="vcACFNlujw8Ewn0Qlh5Q-77" target="vcACFNlujw8Ewn0Qlh5Q-55" edge="1">
          <mxGeometry relative="1" as="geometry" />
        </mxCell>
        <mxCell id="PtcjipvapH0LygTKRYyR-5" style="edgeStyle=orthogonalEdgeStyle;rounded=0;orthogonalLoop=1;jettySize=auto;html=1;exitX=0.75;exitY=1;exitDx=0;exitDy=0;entryX=0.75;entryY=0;entryDx=0;entryDy=0;" parent="1" source="vcACFNlujw8Ewn0Qlh5Q-7" target="vcACFNlujw8Ewn0Qlh5Q-55" edge="1">
          <mxGeometry relative="1" as="geometry" />
        </mxCell>
        <mxCell id="PtcjipvapH0LygTKRYyR-6" value="&amp;lt;&amp;lt;include&amp;gt;&amp;gt;" style="text;html=1;align=center;verticalAlign=middle;whiteSpace=wrap;rounded=0;" parent="1" vertex="1">
          <mxGeometry x="535" y="350" width="60" height="30" as="geometry" />
        </mxCell>
        <mxCell id="PtcjipvapH0LygTKRYyR-7" value="&amp;lt;&amp;lt;include&amp;gt;&amp;gt;" style="text;html=1;align=center;verticalAlign=middle;whiteSpace=wrap;rounded=0;" parent="1" vertex="1">
          <mxGeometry x="560" y="170" width="60" height="30" as="geometry" />
        </mxCell>
        <mxCell id="PtcjipvapH0LygTKRYyR-9" value="&amp;lt;&amp;lt;include&amp;gt;&amp;gt;" style="text;html=1;align=center;verticalAlign=middle;whiteSpace=wrap;rounded=0;" parent="1" vertex="1">
          <mxGeometry x="395" y="330" width="60" height="30" as="geometry" />
        </mxCell>
        <mxCell id="PtcjipvapH0LygTKRYyR-10" value="&amp;lt;&amp;lt;include&amp;gt;&amp;gt;" style="text;html=1;align=center;verticalAlign=middle;whiteSpace=wrap;rounded=0;" parent="1" vertex="1">
          <mxGeometry x="420" y="250" width="60" height="30" as="geometry" />
        </mxCell>
        <mxCell id="PtcjipvapH0LygTKRYyR-12" style="edgeStyle=orthogonalEdgeStyle;rounded=0;orthogonalLoop=1;jettySize=auto;html=1;exitX=1;exitY=0;exitDx=0;exitDy=0;entryX=0;entryY=0.5;entryDx=0;entryDy=0;" parent="1" source="PtcjipvapH0LygTKRYyR-11" target="vcACFNlujw8Ewn0Qlh5Q-55" edge="1">
          <mxGeometry relative="1" as="geometry">
            <Array as="points">
              <mxPoint x="460" y="480" />
              <mxPoint x="460" y="315" />
            </Array>
          </mxGeometry>
        </mxCell>
        <mxCell id="PtcjipvapH0LygTKRYyR-11" value="Review a product" style="rounded=1;whiteSpace=wrap;html=1;" parent="1" vertex="1">
          <mxGeometry x="275" y="480" width="105" height="30" as="geometry" />
        </mxCell>
        <mxCell id="PtcjipvapH0LygTKRYyR-13" value="&amp;lt;&amp;lt;include&amp;gt;&amp;gt;" style="text;html=1;align=center;verticalAlign=middle;whiteSpace=wrap;rounded=0;" parent="1" vertex="1">
          <mxGeometry x="410" y="475" width="60" height="30" as="geometry" />
        </mxCell>
        <mxCell id="lFamUnm0mIOlGsOaa_iN-1" style="edgeStyle=orthogonalEdgeStyle;rounded=0;orthogonalLoop=1;jettySize=auto;html=1;exitX=0.5;exitY=1;exitDx=0;exitDy=0;" edge="1" parent="1" source="vcACFNlujw8Ewn0Qlh5Q-1" target="vcACFNlujw8Ewn0Qlh5Q-1">
          <mxGeometry relative="1" as="geometry" />
        </mxCell>
        <mxCell id="lFamUnm0mIOlGsOaa_iN-2" value="Share product to other users" style="rounded=1;whiteSpace=wrap;html=1;" vertex="1" parent="1">
          <mxGeometry x="285" y="520" width="100" height="30" as="geometry" />
        </mxCell>
        <mxCell id="lFamUnm0mIOlGsOaa_iN-3" value="Visit the website of the shop who&#39;s listed the product" style="rounded=1;whiteSpace=wrap;html=1;" vertex="1" parent="1">
          <mxGeometry x="510" y="610" width="120" height="60" as="geometry" />
        </mxCell>
        <mxCell id="lFamUnm0mIOlGsOaa_iN-4" value="Customize the main dashboard" style="rounded=1;whiteSpace=wrap;html=1;" vertex="1" parent="1">
          <mxGeometry x="410" y="550" width="115" height="30" as="geometry" />
        </mxCell>
        <mxCell id="lFamUnm0mIOlGsOaa_iN-12" style="edgeStyle=orthogonalEdgeStyle;rounded=0;orthogonalLoop=1;jettySize=auto;html=1;exitX=1;exitY=1;exitDx=0;exitDy=0;entryX=0.5;entryY=0;entryDx=0;entryDy=0;" edge="1" parent="1" source="lFamUnm0mIOlGsOaa_iN-5" target="lFamUnm0mIOlGsOaa_iN-6">
          <mxGeometry relative="1" as="geometry" />
        </mxCell>
        <mxCell id="lFamUnm0mIOlGsOaa_iN-5" value="Search products" style="rounded=1;whiteSpace=wrap;html=1;" vertex="1" parent="1">
          <mxGeometry x="273" y="570" width="100" height="20" as="geometry" />
        </mxCell>
        <mxCell id="lFamUnm0mIOlGsOaa_iN-6" value="Filter and order search results" style="rounded=1;whiteSpace=wrap;html=1;" vertex="1" parent="1">
          <mxGeometry x="330" y="625" width="105" height="30" as="geometry" />
        </mxCell>
        <mxCell id="lFamUnm0mIOlGsOaa_iN-13" value="&amp;lt;&amp;lt;include&amp;gt;&amp;gt;" style="text;html=1;align=center;verticalAlign=middle;whiteSpace=wrap;rounded=0;" vertex="1" parent="1">
          <mxGeometry x="320" y="590" width="60" height="30" as="geometry" />
        </mxCell>
      </root>
    </mxGraphModel>
  </diagram>
</mxfile>
